<?xml version="1.0" encoding="utf-8"?><svg viewBox="0 0 18 18" xmlns="http://www.w3.org/2000/svg" xmlns:xlink="http://www.w3.org/1999/xlink"><style>:root>svg{display:none}:root>svg:target{display:block}</style><svg fill="none" viewBox="0 0 18 18" id="copy" xmlns="http://www.w3.org/2000/svg"><path fill-rule="evenodd" clip-rule="evenodd" d="M0 11.77a2.077 2.077 0 0 0 2.077 2.076h2.077v-1.385H2.077a.692.692 0 0 1-.692-.692V2.077a.692.692 0 0 1 .692-.692h9.692a.693.693 0 0 1 .692.692v2.077h-6.23A2.077 2.077 0 0 0 4.154 6.23v9.692A2.077 2.077 0 0 0 6.23 18h9.692A2.077 2.077 0 0 0 18 15.923V6.231a2.077 2.077 0 0 0-2.077-2.077h-2.077V2.077A2.077 2.077 0 0 0 11.77 0H2.077A2.077 2.077 0 0 0 0 2.077v9.692Zm5.538-5.54a.692.692 0 0 1 .693-.692h9.692a.692.692 0 0 1 .692.693v9.692a.692.692 0 0 1-.692.692H6.231a.692.692 0 0 1-.693-.692V6.231Z" fill="#000"/></svg></svg>